# xmcd
#
# Track frame offsets:
#	150
#	13090
#	27316
#	38402
#	50157
#	62182
#	74572
#	88834
#	100734
#	113796
#	127041
#	137752
#	150474
#	162043
#	176959
#	189020
#	198355
#	210966
#	224130
#	236769
#	251289
#	262966
#	275309
#	287634
#	298470
#	310889
#
# Disc length: 4313 seconds
# Revision: 0
# Processed by: cddbd v1.5.2PL0 Copyright (c) Steve Scherf et al.
# Submitted via: dBpowerAMP V12.0
#
DISCID=8710d71a
DTITLE=Various Artist - Let Me Tell You About The Blues - Texas
DYEAR=1949
DGENRE=Blues
TTITLE0=Joe Turner - Adam Bit The Apple
TTITLE1=Ernest Lewis - Rosa Lee
TTITLE2=Smokey Hogg - You Gotta Go
TTITLE3=Mr Honey - Who May Your Regular Be
TTITLE4=Texas Alexander - Crossroads
TTITLE5=Rocky Thompson - Bull Corn Blues
TTITLE6=Soldier Boy Houston - Dallas Be Bop Blues
TTITLE7=Peppermint Harris - Raining In My Heart
TTITLE8=Bettye Jean Washington - Why Oh Why (Did You Let Me Go)
TTITLE9=Willie Holiday - I've Played This Town
TTITLE10=Hubert Robinson with Willlie Johnson, his piano and orchestra - Got The Boogie Woogie Blues
TTITLE11=Joe Houston - Your Little Girl Is Gone
TTITLE12=Lil' Son Jackson - Rockin' And Rollin'
TTITLE13=L.C. Williams - I Don't Want No Woman
TTITLE14=Alexander Moore - If I Lose You Woman
TTITLE15=The Sugarman - She's Gone With The Wind
TTITLE16=Zuzu Bollin - Why Don't You Eat Where You Slept Last Night
TTITLE17=Memphis Slim - Sittin' And Thinkin'
TTITLE18=Jimmy McCracklin - She's Gone
TTITLE19=Lowell Fulson - Reconsider Baby
TTITLE20=Earl Gilliam - Wrong Doing Woman
TTITLE21=Clarence Samuels - Chicken Hearted Woman
TTITLE22=Lightnin' Hopkins - Walkin' The Streets
TTITLE23=Frankie Lee Sims - What Will Lucy Do
TTITLE24=Mercy Baby - Mercy's Blues
TTITLE25=Big Mama Thornton - Just Like A Dog (Barking Up The Wrong Tree)
EXTD=
EXTT0=
EXTT1=
EXTT2=
EXTT3=
EXTT4=
EXTT5=
EXTT6=
EXTT7=
EXTT8=
EXTT9=
EXTT10=
EXTT11=
EXTT12=
EXTT13=
EXTT14=
EXTT15=
EXTT16=
EXTT17=
EXTT18=
EXTT19=
EXTT20=
EXTT21=
EXTT22=
EXTT23=
EXTT24=
EXTT25=
PLAYORDER=
